<svg width="455" height="182" viewBox="0 0 455 182" fill="none" xmlns="http://www.w3.org/2000/svg">
<path d="M88.11 3.08C91.19 1.11 95.26 -0.839997 98.51 1.99C100.88 2.27 103.26 1.18 105.57 1.56C110.52 4.03 116.17 4.43999 121.17 6.78999C127.97 9.55999 134.04 14.91 136.35 22.03C138.97 29.84 137.57 38.37 134.87 45.96C131.65 55.06 125.27 63.2 116.72 67.83C108.47 72.65 99.67 76.59 90.39 78.96C88.75 75.57 88.3 71.8 88.44 68.07C95.92 65.68 103.21 62.71 110.21 59.16C116.74 55.67 121.87 49.42 123.59 42.18C124.97 36.88 123.02 30.78 118.46 27.63C111.59 22.8 102.39 22.07 94.52 24.61C84.57 27.66 76.25 34.66 70.14 42.93C62.83 52.87 58.46 64.68 55.69 76.61C46.26 79.51 36.79 82.52 27.96 86.98C27.86 82.48 27.13 78.09 25.7 73.84C26.88 71.57 29.31 69.45 28.51 66.66C26.41 62.61 27.52 56.17 32.21 54.54C32.83 52.97 33.44 51.4 34.06 49.83C31.65 45.78 34.08 41.02 36.81 37.82C37.92 36.39 39.75 36.07 41.39 35.59C42.34 34.09 43.31 32.61 44.26 31.12C43.19 26.73 46.38 22.94 49.61 20.45C51.01 19.15 53.01 19.31 54.78 19.31C55.78 18.44 56.79 17.59 57.8 16.72C57.7 12.1 61.97 9.12999 65.87 7.72999C67.65 6.96999 69.6 7.37 71.35 8.03C73.07 7.33 74.79 6.49999 75.83 4.86999C78.65 1.08999 84.24 0.77 88.11 3.08Z" fill="white"/>
<path d="M189.05 2.89C199.79 -0.049997 211.83 2.45 220.55 9.36C227.11 14.29 232.12 21.98 231.91 30.42C223.9 33.72 215.78 36.78 207.48 39.29C208.78 36.17 210.76 33.27 211.27 29.87C212.4 24.26 209.6 18.12 204.59 15.34C197.64 11.52 188.16 11.65 182.05 17.06C178.4 20.18 176.01 25.25 177.33 30.07C178.6 35.19 183.06 38.93 187.95 40.52C195.17 42.96 202.95 41.47 210.16 39.74C218.43 37.16 226.52 33.99 234.52 30.66C243.33 27.48 252.57 24.98 262.01 25.22C271.34 25.27 280.51 28.59 287.98 34.12C298.57 41.66 306.59 53.16 308.63 66.14C305.03 71.86 301.45 77.62 298.84 83.88C294.08 94.2 293.39 105.83 293.6 117.03C293.15 119.53 291.71 121.7 290.76 124.02C286.99 132.07 283.94 140.88 284.85 149.9C285.3 154.13 287.19 158.76 291.26 160.68C292.81 161.76 294.43 160.22 295.21 158.96C296.74 155.88 296.74 152.34 296.84 148.98C296.87 136.96 294.72 125.04 294.97 113.01C295.09 104.6 295.46 95.99 298.52 88.05C300.99 81.71 304.13 75.62 307.74 69.85C311.45 63.19 316.93 57.62 323.06 53.15C328.28 49.52 334.43 46.64 340.92 46.89C344.76 46.97 349.1 48.91 350.24 52.88C351.63 57.27 350.28 62.03 348.26 66.01C343.96 74.21 339.22 82.25 335.98 90.95C334.98 93.27 335.26 95.8 335.69 98.22C340.55 100.49 345.32 96.83 348.43 93.33C348.96 94.14 349.45 95.04 349.93 95.91C350.74 88.45 354.71 81.82 359.14 75.94C365.33 67.36 370.32 57.58 371.13 46.87C375.68 46.07 379.75 49.91 380.81 54.1C381.88 58.9 381 63.88 379.63 68.52C377.32 76.44 372.59 83.44 370.57 91.45C370.26 93.45 369.67 96 371.35 97.58C372.71 98.99 374.73 98.02 376.19 97.29C380.34 94.91 383.43 91.14 386.36 87.44C395.52 75.33 402.91 61.51 405.31 46.36C405.9 46.12 407.09 45.64 407.69 45.4C411.61 47.14 415.95 49.34 417.5 53.66C418.83 58.08 417.64 62.81 416.02 66.99C412.82 74.87 408.51 82.26 405.29 90.14C404.16 93.1 403.62 97.32 406.4 99.54C409.95 101.71 414.46 101.13 418.07 99.4C424.2 96.48 428.52 90.93 431.99 85.27C432.92 88.13 433.73 91.02 434.44 93.95C428.32 101.34 421.28 108.16 412.83 112.82C408.29 115.15 403.12 116.98 397.97 116.01C395.28 115.55 392.51 114.15 391.31 111.58C389.49 108.01 389.94 103.84 390.63 100.04C391.34 96.6 392.01 93.05 393.87 90.01C397.04 84.65 399.53 78.93 401.83 73.16C402.67 71.09 403.38 68.96 403.71 66.75C401.86 68.13 401.54 70.55 400.68 72.54C396.56 83.32 391.1 93.76 383.42 102.46C380.18 106.61 375.96 109.87 371.45 112.52C368.25 114.26 364.7 115.71 361 115.53C356.86 115.17 353 112.46 351.29 108.67C349.82 104.8 349.21 100.62 349.62 96.5C349.13 96.68 348.15 97.06 347.66 97.24C348.13 99.16 348.34 101.14 348.57 103.11C343.16 108.62 336.83 113.88 329.11 115.57C323.63 116.83 317.62 113.63 315.56 108.42C313.2 102.57 314.64 95.92 317.31 90.42C321.18 82.43 326.8 75.39 330.26 67.18C330.87 65.81 331.06 64.3 331.35 62.85C329.07 62.45 326.64 62.28 324.55 63.47C318.02 66.82 313.63 73.12 310.47 79.55C305.57 90.78 302.21 102.8 301.61 115.07C301 125.44 303.2 135.67 304.57 145.9C305.61 154.51 305.26 163.92 300.35 171.39C297.21 176.15 291.87 179.13 286.19 179.46C285.22 180.28 284.22 181.07 283.22 181.86C281.69 181.33 280.16 180.79 278.65 180.24C278.34 179.12 278.05 178.01 277.78 176.89C275.69 177.64 273.2 178.34 271.37 176.61C268.69 175.16 269.32 171.97 269.14 169.45C267.25 168.94 264.89 169.15 263.61 167.4C261.72 165.42 261.27 162.63 261.21 160.02C261.84 159.37 262.48 158.72 263.12 158.08C262.85 157.03 262.59 155.98 262.34 154.94C257.77 152.87 257.79 146.89 259.49 142.9C259.94 141.55 261.32 140.96 262.39 140.2C263.92 139.26 262.66 137.77 262.52 136.5C261.16 132.48 263.45 127.06 268.03 126.59C267.64 124.39 267.08 121.95 268.5 119.97C269.18 118.14 271.21 117.91 272.8 117.27C271.25 113.83 273.58 109.9 277.23 109.33C283.1 98.73 290.15 88.26 291.88 76C293.66 67.45 294.03 58.26 290.8 50C289.35 46.56 287.23 42.99 283.67 41.44C278.09 39.16 271.95 38.83 265.99 39.01C253.69 39.57 241.65 42.34 229.62 44.78C219.09 46.46 208.62 48.64 197.97 49.46C191.19 49.5 184 48.73 178.29 44.74C171.21 40.1 167.16 30.88 169.41 22.58C171.98 13.24 179.66 5.41 189.05 2.89ZM275.51 112.21C274.54 112.73 273.57 114.88 275.04 115.36C276.74 115.48 277.87 111.17 275.51 112.21ZM277.43 117.5C277.24 118.64 277.06 119.78 276.89 120.93C277.45 120.73 278.57 120.35 279.13 120.15C279.36 119.11 279.59 118.07 279.82 117.04C279.22 117.15 278.03 117.38 277.43 117.5ZM269.27 123.75C269.8 123.67 270.86 123.5 271.4 123.42C271.76 122.16 272.13 120.9 272.47 119.64C270.59 120.26 269.97 122.11 269.27 123.75ZM273.27 125.26C271.61 126.8 271.73 129.04 272.14 131.08C272.84 131.13 274.24 131.22 274.93 131.27C277.11 130.14 277.39 127.55 276.84 125.41C276.09 125.18 274.58 124.73 273.83 124.5L273.27 125.26ZM264.36 136.24C267.3 134.96 268.07 131.58 267.67 128.67C264.94 130.14 263.94 133.3 264.36 136.24ZM268.87 147.67C269.65 147.57 271.23 147.38 272.01 147.28C274.46 143.55 275.71 138.54 272.91 134.63C267.74 136.51 267.01 143.14 268.87 147.67ZM261.95 142.59C260.57 145.88 260.19 149.63 262.01 152.85C264.97 150.69 264.61 146.86 264.26 143.66C263.68 143.39 262.53 142.85 261.95 142.59ZM272.26 162.36C272.65 162.18 273.44 161.84 273.83 161.67C275.46 157.83 273.88 153.52 270.83 150.91C267.25 153.89 268.7 160.22 272.26 162.36ZM263.78 159.63C262.98 162.41 264.5 164.93 266.09 167.09C266.48 166.76 267.27 166.1 267.66 165.77C267.01 163.35 265.84 161.12 263.78 159.63ZM274.32 164.8C274.02 167.05 275.31 168.82 276.78 170.37C277.6 170.21 279.25 169.89 280.07 169.73C279.53 167.53 279.16 164.89 276.52 164.38C275.97 164.49 274.87 164.69 274.32 164.8ZM271.04 172.1C271.62 174.13 273.32 175.33 275.2 176.09C274.88 173.84 272.97 172.79 271.04 172.1ZM282.07 172.09C280.93 173.38 283.1 175.35 284.35 174.32C285.4 173.08 283.32 170.98 282.07 172.09ZM279.43 177.75C280.87 178.68 282.49 179.3 284.24 179.23C282.83 178.21 281.24 177.24 279.43 177.75Z" fill="white"/>
<path d="M82.08 42.19C89.85 37.03 100.41 36.17 108.82 40.25C113.47 42.44 116.03 47.25 117.49 51.96C114.8 54.42 111.94 56.69 108.82 58.6C108.14 56.66 107.86 54.23 105.86 53.15C102.08 51.41 97.81 53.36 94.79 55.73C89.24 59.94 86.13 67.27 87.49 74.18C88.37 79.61 92.29 84.13 97.03 86.71C94.55 90.16 91.92 93.51 89.05 96.66C82.06 94.23 75.46 89.59 72.15 82.82C68.75 76.87 67.07 69.78 68.36 62.98C70.22 54.73 74.88 46.83 82.08 42.19Z" fill="white"/>
<path d="M439.62 45.7C441.63 44.03 444.33 42.62 447.02 43.41C449.97 44.25 451.58 47.24 452.39 50C453.7 55.33 452.87 61.01 450.88 66.07C448.54 72.05 445.6 77.8 442.13 83.2C440.79 79.78 439.63 76.26 439.18 72.6C438.95 69.98 439.38 67.32 438.87 64.72C436.96 70.41 438.25 76.57 440.35 82.02C444.9 92.27 451.07 101.94 453.6 112.99C455.7 122.15 453.53 132.19 447.68 139.57C445.94 141.48 445.06 143.9 444.22 146.29C442.68 146.83 441.13 147.34 439.56 147.72C437.86 151.24 433.53 152.22 430.04 151.1L428.87 150.92C427.07 152.3 425.37 154.12 422.94 154.22C420.12 154.9 417.51 153.5 414.97 152.51C411.1 155.36 405.1 155.85 401.47 152.36C400.83 152.2 399.53 151.89 398.88 151.73C394.45 154.63 388.88 152.89 385.09 149.77C381.3 152.29 376.08 151.2 373.1 147.92C369.44 150.24 364.33 150.05 361.22 146.89C357.97 149.28 353.51 149.11 350.1 147.16C348.14 150.62 343.58 152.06 340.09 150.02C340.1 150.75 340.13 152.2 340.15 152.93C339.93 155.29 337.54 156.12 335.68 156.88C334.19 159.77 332.58 162.7 329.94 164.72C326.13 162.66 326.12 157.92 326.68 154.17C328.36 145.6 333.24 137.49 340.66 132.71C346.52 128.81 353.52 127.12 360.41 126.21C376.89 124.28 393.38 127.2 409.88 127.14C415.7 126.95 421.78 126.63 427.05 123.87C430.59 122.07 433.35 118.81 434.5 115C437.1 108.25 436.9 100.82 435.43 93.84C434.75 87.65 431.67 82.08 430.64 75.97C428.12 65.24 431.61 53.26 439.62 45.7ZM439.28 138.08C439.86 138.7 440.46 139.33 441.06 139.97C442.36 138.87 443.47 137.59 442.79 135.76C441.59 136.48 440.41 137.26 439.28 138.08ZM360.94 139.86C362 140.81 363.08 141.75 364.18 142.67C365.79 142.44 367.38 142.06 368.92 141.46C367.35 138.58 363.49 137.45 360.94 139.86ZM348.34 140.29C348.53 141.48 350.21 141.95 351.04 142.82C352.78 142.25 354.49 141.59 356.13 140.76C354.16 138.25 350.76 138.73 348.34 140.29ZM374.37 141.93C376.46 144.03 379.48 144.55 382.13 143.17C380.95 140.69 378.47 139.85 375.91 139.81C375.39 140.51 374.88 141.22 374.37 141.93ZM428.68 144.99C430.18 144.86 431.69 144.7 433.21 144.5C434.14 143.5 435.05 142.47 435.92 141.41C432.93 140.86 430 142.26 428.68 144.99ZM338.09 144.28C338.73 144.87 339.37 145.46 340.01 146.06C341.87 145.35 343.63 144.28 344.2 142.23C341.78 141.55 339.62 142.34 338.09 144.28ZM387.83 142.32C388.39 146.63 393.89 146.51 397.12 145.68C397.05 145.09 396.92 143.91 396.86 143.32C394.08 141.79 390.88 141.39 387.83 142.32ZM442.46 142.42C441.22 142.56 439.88 143.59 439.83 144.9C440.9 146.99 444.9 143.21 442.46 142.42ZM351.42 145.35C354 146.75 357.07 146.84 359.65 145.35C357.03 143.99 354.03 144.05 351.42 145.35ZM402.63 145.79C405.83 148.06 410.14 148.2 413.48 146.1C410.37 143.76 405.82 143.44 402.63 145.79ZM416.59 146.12C418.13 146.66 419.69 147.79 421.41 147.32C422.88 146.98 424.24 146.31 425.62 145.7C423.36 142.55 419.18 144.45 416.59 146.12ZM363.13 145.99C365.61 147.42 368.48 147.48 371.19 146.74C368.88 144.95 365.71 144.46 363.13 145.99ZM341.57 148.64C343.9 148.97 346.09 148.27 348.01 146.98C347.54 146.66 346.59 146.04 346.11 145.72C344.5 146.53 342.87 147.37 341.57 148.64ZM375.4 147.18C377.7 148.85 380.55 149.3 383.31 148.63C381.17 146.64 378.11 146.18 375.4 147.18ZM432.57 147.56C432.44 148.14 432.17 149.28 432.04 149.85C433.8 149.28 435.54 148.62 437.24 147.88C436.8 145.22 434.16 147.56 432.57 147.56ZM331.88 150.61C332.55 150.61 333.89 150.61 334.56 150.61C334.7 149.46 334.82 148.31 334.93 147.16C333.69 148.11 332.69 149.28 331.88 150.61ZM387.85 149.26C390.5 150.76 393.54 151.24 396.57 150.94C394.43 148.5 390.73 147.95 387.85 149.26ZM404.45 150.46C404.29 150.77 403.97 151.39 403.81 151.71C406.35 152.99 409.6 152.73 412.14 151.49C409.71 150.41 407.05 150.39 404.45 150.46ZM418.11 151.8C420.08 152.27 422.11 152.17 424.11 151.95C424.67 151.32 425.24 150.69 425.82 150.07C423.11 149.89 420.21 149.8 418.11 151.8ZM335.82 151.74C335.71 152.35 335.5 153.57 335.39 154.17C335.94 154.05 337.04 153.8 337.59 153.67C337.72 153.03 337.97 151.75 338.09 151.1C337.52 151.26 336.39 151.58 335.82 151.74Z" fill="white"/>
<path d="M141.29 53.28C150.38 46.89 162.34 44.8 173.04 47.83C176.62 48.68 179.8 51.1 181.44 54.41C183.89 59.01 182.6 64.62 179.72 68.7C175.37 74.57 169.07 79.04 161.95 80.85C159.16 81.75 156.15 81.34 154.2 79.02C155.14 77.72 156.05 76.26 157.61 75.62C161.94 73.42 166.75 70.77 168.47 65.9C169.24 64.33 167.86 62.95 167.3 61.59C158.23 59.07 148.94 65.1 144.95 73.09C140.82 80.01 140 89.34 144.73 96.18C148.33 101.76 156.03 103.15 162.02 101.12C172.75 97.82 180.54 89.14 187.18 80.53C185.1 85.78 183.34 91.18 182.54 96.78C176.3 103.92 168.98 110.54 159.98 113.91C152.97 116.65 144.74 116.68 137.99 113.18C129.93 109.25 124.43 100.84 123.53 91.99C123.45 86.66 123.22 81.14 124.95 76.02C127.84 66.99 133.42 58.67 141.29 53.28Z" fill="white"/>
<path d="M202.19 50.18C209.98 49.61 217.65 48.11 225.32 46.7C218.68 58.29 210.5 69.16 206.12 81.9C204.71 86.09 203.41 90.56 204.19 95.01C204.89 98.47 209.07 99.36 212.03 98.52C216.77 97.15 220.03 93.07 222.52 89.05C222.34 92.39 222.74 95.72 222.89 99.06C219.38 104.65 214.2 109.23 208.48 112.5C202.67 115.7 195.23 116.83 189.13 113.82C184.96 111.52 183.49 106.47 183.47 102C183.37 93.53 186.58 85.51 189.72 77.79C193.25 68.32 197.59 59.17 202.19 50.18Z" fill="white"/>
<path d="M246.06 52.83C252.58 48.92 260.48 46.37 268.1 48.09C270.64 48.6 273.41 49.56 274.8 51.92C276.21 54.84 274.41 58.35 271.67 59.73C267.39 62.13 262.39 62.75 258.02 64.97C251.86 67.71 246.97 72.91 244.17 79C241.95 83.62 240.32 88.87 241.38 94.02C241.91 96.54 243.1 99.17 245.42 100.49C249.43 102.24 254.06 100.75 257.42 98.29C260.74 96.01 263.06 92.63 265.08 89.22C268.64 91.03 272.54 92.04 276.51 92.45C272.12 99.24 266.95 105.71 260.16 110.25C254.4 114.26 247.2 116.74 240.16 115.45C232.16 114.13 225.54 107.18 224.45 99.18C222.76 91.68 224.42 84 226.72 76.84C230.44 67.08 237.19 58.4 246.06 52.83Z" fill="white"/>
<path d="M266.96 68.01C270.63 64.69 276.92 63.69 280.81 67.15C284.02 70.98 283.43 76.71 281.62 81.05C279.18 79.39 277.05 77.1 274.05 76.51C275.84 78.56 277.97 80.39 280.52 81.44C283.31 82.24 286.23 82.47 289.13 82.57C288.24 85.14 287.31 87.69 286.35 90.23C279.4 91.67 271.56 91.49 265.42 87.57C263.09 86.2 261.59 83.67 261.49 80.97C260.9 76.06 263.39 71.23 266.96 68.01Z" fill="white"/>
<path d="M104.2 75.43C108.82 73.67 113.22 71.39 117.51 68.96C116.44 74.43 114.99 79.86 112.77 84.98C110.06 90.39 107.17 95.7 104.1 100.91C97.89 110.06 89.3 117.82 78.98 122C72.13 124.78 64.26 125.75 57.16 123.33C46.87 119.78 38 112.36 32.76 102.81C38.73 96.45 46.7 92.58 54.79 89.66C55.35 92.7 55.91 95.82 57.4 98.57C60.04 103.94 65.82 108 71.95 107.47C78.62 106.66 84.18 102.42 89.02 98.06C96.16 92.14 100.13 83.53 104.2 75.43Z" fill="white"/>
<path d="M53.14 78.7C57.8 76.95 62.58 75.54 67.38 74.21C68.23 77.62 69.57 80.87 71.25 83.95C59.69 87.06 47.5 89.55 37.65 96.78C33.52 99.55 30.61 103.7 28.16 107.95C25.46 112.75 24.19 118.7 26.28 123.97C28.73 130.45 35.05 134.64 41.54 136.34C48.64 138.11 56.02 137.01 63.12 135.83C77.16 133.21 90.88 128.98 105.05 126.97C116.97 125.21 129.41 124.88 141.04 128.48C146.46 130.14 151.58 132.71 156.4 135.67C158.93 137.46 162.2 139.27 162.38 142.75C159.61 143.24 156.8 143.26 154 143.27C149.56 143.31 145.23 144.37 140.98 145.55C139.24 150.06 133.71 149.75 129.82 148.87C127.19 153.2 121.72 155.22 116.89 153.73C113.83 158.59 107.4 161.14 101.93 159.12C100.01 161.35 97.91 163.67 94.87 164.27C91.61 165.61 88.2 164.33 84.87 164.11C81.49 168.81 74.23 170.62 69.31 167.34C68.12 167.43 66.94 167.53 65.76 167.64C63.4 170.59 59.41 170.56 56 170.08C54.3 170.05 53.32 168.54 52.23 167.49C49.1 166.73 46.17 168.92 43.06 168.11C40.26 167.5 38.8 164.53 35.99 163.92C27.01 160.8 18.42 156.12 11.66 149.35C6.72001 144.55 2.98001 138.36 1.53001 131.59C-0.359994 121.52 2.31 110.69 8.68 102.66C13.15 97.26 18.8 92.88 24.99 89.61C34.09 85.27 43.49 81.62 53.14 78.7ZM130.68 141.67C130.93 144.46 134.34 142.51 136.05 142.84C136.27 142.33 136.7 141.3 136.91 140.79C134.93 140.19 131.73 139.28 130.68 141.67ZM120.53 141.6C118.44 141.99 116.98 143.61 116.77 145.71C120.12 146.93 124.62 145.8 125.46 141.92C123.84 141.64 122.15 141.02 120.53 141.6ZM131.7 146.51C134.02 147.57 137.08 147.6 138.66 145.28C136.26 145.1 133.88 145.47 131.7 146.51ZM101.56 151.08C105.01 152.09 108.44 151.01 111.3 149.03C111.34 148.26 111.42 146.71 111.46 145.93C107.57 144.69 101.32 146.03 101.56 151.08ZM118.41 152.11C121.78 152.2 125.44 151.28 127.33 148.26C123.96 148.04 120.28 149.09 118.41 152.11ZM85.67 153.94C86.78 159.59 96.33 157.27 96.36 152C94.95 151.26 93.69 150.04 92.03 149.96C89.47 150.13 86.5 151.24 85.67 153.94ZM103.88 157.56C107.71 158.16 111.36 156.42 114.16 153.94L113.88 152.79C110.06 152.67 105.85 154.08 103.88 157.56ZM69.61 159.97C73.22 161.82 77.39 160.76 80.27 158.09C80 157.46 79.44 156.2 79.17 155.57C75.61 154.82 70.06 155.44 69.61 159.97ZM42.1 159.12C43.95 160.63 46.17 161.26 48.56 161.02C48.23 160.42 47.57 159.21 47.24 158.61C46.14 158.37 45.05 158.13 43.95 157.9C43.49 158.2 42.56 158.81 42.1 159.12ZM57.08 159C56.56 159.55 55.5 160.65 54.98 161.2C57.3 163.36 60.4 163.1 63.2 162.22C63.38 161.68 63.75 160.6 63.93 160.07C61.84 158.83 59.45 158.53 57.08 159ZM88.66 162.77C92.23 163 95.71 161.93 98.64 159.91C98.53 159.54 98.32 158.81 98.22 158.44C94.77 158.53 89.76 158.76 88.66 162.77ZM70.71 165.99C74.15 167.48 77.85 166.48 81.13 165.12C81.26 164.7 81.51 163.88 81.64 163.47C77.86 162.54 73.55 163.15 70.71 165.99ZM40.48 164.01C42.03 165.38 43.97 166.03 45.94 166.53L45.77 166.33C46.15 166.03 46.91 165.45 47.3 165.15C45.11 164.37 42.82 163.89 40.48 164.01ZM54.15 167.05C57.11 168.26 61.17 169.18 63.57 166.38C60.52 165.42 56.8 164.72 54.15 167.05Z" fill="white"/>
<path d="M112.86 87.34C116.21 86.54 119.42 85.22 122.37 83.44C122.23 86.22 122.24 89 122.29 91.79C117.82 95.23 112.6 97.63 107 98.42C109.16 94.84 111.17 91.17 112.86 87.34Z" fill="white"/>
</svg>
